<svg width="11" height="11" viewBox="0 0 11 11" fill="none" xmlns="http://www.w3.org/2000/svg">
<path d="M9.55193 7.51041C9.0311 6.78124 8.77069 6.40625 8.35402 6.3125C7.86444 6.20833 7.42693 6.45833 7.23943 6.58333C6.94776 6.53124 6.16651 6.33333 5.47901 5.65624C4.79151 4.97916 4.59361 4.20833 4.53111 3.91666C4.62486 3.71875 4.85402 3.20833 4.67694 2.64583C4.54152 2.17708 4.17693 1.9375 3.47901 1.44792C3.31235 1.33333 3.12486 1.21875 2.88527 1.21875C2.61444 1.21875 2.41651 1.36458 2.32276 1.44792L1.51026 2.26042C0.697765 3.11458 1.59359 5.375 3.60401 7.38541C5.61443 9.39583 7.87486 10.3333 8.72902 9.47917L9.54152 8.66666C9.62485 8.57291 9.77069 8.35417 9.77069 8.07292C9.77069 7.83333 9.66652 7.65624 9.55193 7.51041Z" stroke="#252B42" stroke-width="1.5" stroke-linecap="round" stroke-linejoin="round"/>
</svg>
